<svg xmlns="http://www.w3.org/2000/svg" width="74.623" height="74.623"><circle fill="#800D07" cx="37.311" cy="37.312" r="35.782"/><path fill="#fff" d="M24.515 15.531c0-.455.325-.846.844-.846.39 0 .78.391.78.846v18.123c0 6.236 5.001 11.238 11.107 11.238 6.171 0 11.172-5.002 11.172-11.238v-18.123c0-.455.455-.846.845-.846.455 0 .844.391.844.846v18.123c0 7.145-5.781 12.859-12.861 12.859-7.015 0-12.731-5.715-12.731-12.859v-18.123z"/><path fill="#fff" d="M36.499 45.447c0-.189.325-.352.845-.352.455 0 .779.162.779.352v18.287c0 .189-.324.352-.779.352-.52 0-.845-.162-.845-.352v-18.287z"/><path fill="#fff" stroke="#fff" stroke-miterlimit="10" d="M46.912 32.781s-5.069.01-7.927-1.717c-6.539-3.82-11.042-1.709-11.151-1.615-.546 6.109.318 13.465 9.75 13.777 8.253-.083 9.398-8.146 9.328-10.445z"/></svg>