<svg xmlns="http://www.w3.org/2000/svg" width="91.09" height="100"><circle fill="#2C3E50" stroke="#fff" stroke-width=".276" stroke-miterlimit="10" cx="29.491" cy="42.119" r="9.966"/><circle fill="#2C3E50" stroke="#fff" stroke-width=".276" stroke-miterlimit="10" cx="53.333" cy="43.459" r="8.483"/><circle fill="#2C3E50" stroke="#fff" stroke-width=".276" stroke-miterlimit="10" cx="75.629" cy="43.963" r="9.964"/><circle fill="#2C3E50" stroke="#fff" stroke-width=".276" stroke-miterlimit="10" cx="40.033" cy="58.545" r="8.545"/><circle fill="#2C3E50" stroke="#fff" stroke-width=".276" stroke-miterlimit="10" cx="63.1" cy="63.936" r="9.964"/><path fill="#2C3E50" d="M87.837 28.829v.691c-3.685.059-7.369.03-11.064-.089-3.684-.148-7.369-.385-11.044-.721-7.359-.682-14.68-1.719-21.921-3.29-7.201-1.66-14.344-3.784-21.062-6.984-3.339-1.62-6.589-3.517-9.404-6.016-1.383-1.264-2.657-2.687-3.605-4.336-.959-1.641-1.552-3.547-1.522-5.454l.701-.01c.336.9.721 1.68 1.245 2.371.474.691 1.027 1.314 1.64 1.857 1.215 1.086 2.539 2.015 4.021 2.766 2.904 1.561 6.065 2.756 9.306 3.813 6.5 2.104 13.316 3.685 20.192 5.246l3.447.741c2.954-2.055 7.765-7.547 12.468-16.912l2.647 1.333c-3.311 6.609-7.528 12.833-11.44 16.379l13.82 2.993c7.073 1.601 14.235 3.191 21.575 5.622z"/><circle fill="#2C3E50" cx="81.725" cy="39.691" r="2.563"/><circle fill="#2C3E50" stroke="#fff" stroke-width=".276" stroke-miterlimit="10" cx="56.828" cy="86.048" r="7.989"/><circle fill="#2C3E50" cx="69.475" cy="59.886" r="2.563"/><circle fill="#2C3E50" stroke="#fff" stroke-width=".276" stroke-miterlimit="10" cx="45.802" cy="73.829" r="6.567"/></svg>