<svg xmlns="http://www.w3.org/2000/svg" width="399.172" height="79.333"><circle fill="#800000" cx="49.162" cy="39.667" r="37.311"/><path fill="#fff" d="M35.803 16.956c0-.475.339-.881.88-.881.407 0 .813.406.813.881v18.897c0 6.502 5.215 11.718 11.582 11.718 6.435 0 11.649-5.216 11.649-11.718v-18.897c0-.475.474-.881.881-.881.474 0 .88.406.88.881v18.897c0 7.45-6.028 13.409-13.411 13.409-7.314 0-13.275-5.959-13.275-13.409v-18.897z"/><path fill="#fff" d="M48.3 48.15c0-.197.338-.367.88-.367.474 0 .812.17.812.367v19.067c0 .198-.339.368-.812.368-.542 0-.88-.17-.88-.368v-19.067z"/><path fill="#fff" stroke="#fff" stroke-miterlimit="10" d="M59.158 34.942s-5.286.011-8.266-1.789c-6.818-3.983-11.513-1.782-11.627-1.685-.569 6.371.332 14.04 10.167 14.366 8.605-.087 9.799-8.495 9.726-10.892z"/><path fill="#fff" d="M102.336 28.712c-.204-.406.067-.88.474-1.083.474-.203.88 0 1.083.474l12.46 29.458 12.46-29.458c.136-.474.609-.677 1.016-.474.475.203.745.677.542 1.083l-13.205 31.286c0 .067-.068.203-.135.271-.203.203-.406.339-.61.339h-.27c-.203-.067-.474-.271-.609-.542l-13.206-31.354z"/><path fill="#fff" d="M144.323 17.607c0-.542.339-.881.881-.881.406 0 .812.339.812.881v1.625c0 .406-.406.812-.812.812-.542 0-.881-.406-.881-.812v-1.625zm0 10.632c0-.542.339-.812.881-.812.406 0 .812.271.812.812v31.489c0 .474-.406.88-.812.88-.542 0-.881-.406-.881-.88v-31.489z"/><path fill="#fff" d="M188.342 40.834c0-6.569-5.282-11.716-11.647-11.716s-11.715 5.146-11.715 11.716v18.894c0 .203-.068.406-.203.541-.136.203-.339.339-.61.339h-.271l-.203-.136c-.067 0-.136-.067-.203-.135l-.067-.136c-.068-.067-.136-.203-.136-.339v-31.623000000000005c0-.542.406-.812.88-.812.475 0 .813.271.813.812v6.095c2.302-4.131 6.704-6.907 11.715-6.907 7.313 0 13.341 5.959 13.341 13.408v18.894c0 .474-.406.88-.881.88-.541 0-.812-.406-.812-.88v-18.895z"/><path fill="#fff" d="M204.868 17.607c0-.542.339-.881.881-.881.406 0 .812.339.812.881v1.625c0 .406-.406.812-.812.812-.542 0-.881-.406-.881-.812v-1.625zm0 10.632c0-.542.339-.812.881-.812.406 0 .812.271.812.812v31.489c0 .474-.406.88-.812.88-.542 0-.881-.406-.881-.88v-31.489z"/><path fill="#fff" d="M237.375 13.95c0 .475-.406.881-.881.881-2.438 0-3.995.541-4.943 1.625-1.016 1.083-1.558 3.047-1.558 6.229v4.47h5.688c.475 0 .812.406.812.881 0 .474-.338.88-.812.88h-5.688v30.744c0 .475-.406.881-.88.881-.475 0-.881-.406-.881-.881v-30.744h-5.417c-.475 0-.881-.406-.881-.88 0-.475.406-.881.881-.881h5.417v-4.47c0-3.386.609-5.756 2.032-7.381 1.489-1.625 3.589-2.167 6.229-2.167.476 0 .882.339.882.813z"/><path fill="#fff" d="M245.571 28.306c0-.474.339-.88.88-.88.406 0 .812.406.812.88v18.894c0 6.365 5.215 11.58 11.648 11.58 6.162 0 11.173-4.943 11.444-11.106v-19.503999999999998c0-.067.067-.203.135-.338l.068-.068.203-.203c.135-.067.271-.135.474-.135h.136l.203.067.203.203.067.067c.136.136.203.339.203.542v30.405c0 8.533-6.907 15.575-15.575 15.575-2.438 0-4.74-.609-6.771-1.625-.475-.203-.609-.677-.339-1.151.136-.406.678-.541 1.016-.406 1.896.948 3.86 1.49 6.095 1.49 7.72 0 13.883-6.23 13.883-13.883v-5.011c-2.167 4.063-6.501 6.771-11.444 6.771-7.382 0-13.341-5.959-13.341-13.272v-18.892z"/></svg>